<mxfile host="Electron" modified="2024-05-31T14:26:19.032Z" agent="Mozilla/5.0 (Windows NT 10.0; Win64; x64) AppleWebKit/537.36 (KHTML, like Gecko) draw.io/24.2.5 Chrome/120.0.6099.109 Electron/28.1.0 Safari/537.36" etag="mQzj8dmiLXxRq1s1KqKk" version="24.2.5" type="device">
  <diagram name="第 1 页" id="8iPBEWObfus-JTDACWeu">
    <mxGraphModel dx="2074" dy="1205" grid="1" gridSize="10" guides="1" tooltips="1" connect="1" arrows="1" fold="1" page="1" pageScale="1" pageWidth="827" pageHeight="1169" math="0" shadow="0">
      <root>
        <mxCell id="0" />
        <mxCell id="1" parent="0" />
        <mxCell id="LG96tNLQgG1vnL1AxYTh-1" value="" style="rounded=0;whiteSpace=wrap;html=1;fillColor=#dae8fc;strokeColor=#6c8ebf;" vertex="1" parent="1">
          <mxGeometry x="50" y="240" width="700" height="440" as="geometry" />
        </mxCell>
        <mxCell id="LG96tNLQgG1vnL1AxYTh-2" value="" style="shape=cube;whiteSpace=wrap;html=1;boundedLbl=1;backgroundOutline=1;darkOpacity=0.05;darkOpacity2=0.1;size=50;container=0;fillColor=#f5f5f5;strokeColor=#666666;fontColor=#333333;" vertex="1" parent="1">
          <mxGeometry x="120" y="350" width="220" height="170" as="geometry" />
        </mxCell>
        <mxCell id="LG96tNLQgG1vnL1AxYTh-3" value="" style="shape=table;startSize=0;container=1;collapsible=0;childLayout=tableLayout;fontSize=16;" vertex="1" parent="1">
          <mxGeometry x="170" y="400" width="170" height="120" as="geometry" />
        </mxCell>
        <mxCell id="LG96tNLQgG1vnL1AxYTh-4" value="" style="shape=tableRow;horizontal=0;startSize=0;swimlaneHead=0;swimlaneBody=0;strokeColor=inherit;top=0;left=0;bottom=0;right=0;collapsible=0;dropTarget=0;fillColor=none;points=[[0,0.5],[1,0.5]];portConstraint=eastwest;fontSize=16;" vertex="1" parent="LG96tNLQgG1vnL1AxYTh-3">
          <mxGeometry width="170" height="24" as="geometry" />
        </mxCell>
        <mxCell id="LG96tNLQgG1vnL1AxYTh-5" value="" style="shape=partialRectangle;html=1;whiteSpace=wrap;connectable=0;strokeColor=inherit;overflow=hidden;fillColor=none;top=0;left=0;bottom=0;right=0;pointerEvents=1;fontSize=16;" vertex="1" parent="LG96tNLQgG1vnL1AxYTh-4">
          <mxGeometry width="34" height="24" as="geometry">
            <mxRectangle width="34" height="24" as="alternateBounds" />
          </mxGeometry>
        </mxCell>
        <mxCell id="LG96tNLQgG1vnL1AxYTh-6" value="" style="shape=partialRectangle;html=1;whiteSpace=wrap;connectable=0;strokeColor=inherit;overflow=hidden;fillColor=none;top=0;left=0;bottom=0;right=0;pointerEvents=1;fontSize=16;" vertex="1" parent="LG96tNLQgG1vnL1AxYTh-4">
          <mxGeometry x="34" width="34" height="24" as="geometry">
            <mxRectangle width="34" height="24" as="alternateBounds" />
          </mxGeometry>
        </mxCell>
        <mxCell id="LG96tNLQgG1vnL1AxYTh-7" value="" style="shape=partialRectangle;html=1;whiteSpace=wrap;connectable=0;strokeColor=inherit;overflow=hidden;fillColor=none;top=0;left=0;bottom=0;right=0;pointerEvents=1;fontSize=16;" vertex="1" parent="LG96tNLQgG1vnL1AxYTh-4">
          <mxGeometry x="68" width="34" height="24" as="geometry">
            <mxRectangle width="34" height="24" as="alternateBounds" />
          </mxGeometry>
        </mxCell>
        <mxCell id="LG96tNLQgG1vnL1AxYTh-8" style="shape=partialRectangle;html=1;whiteSpace=wrap;connectable=0;strokeColor=inherit;overflow=hidden;fillColor=none;top=0;left=0;bottom=0;right=0;pointerEvents=1;fontSize=16;" vertex="1" parent="LG96tNLQgG1vnL1AxYTh-4">
          <mxGeometry x="102" width="34" height="24" as="geometry">
            <mxRectangle width="34" height="24" as="alternateBounds" />
          </mxGeometry>
        </mxCell>
        <mxCell id="LG96tNLQgG1vnL1AxYTh-9" style="shape=partialRectangle;html=1;whiteSpace=wrap;connectable=0;strokeColor=inherit;overflow=hidden;fillColor=none;top=0;left=0;bottom=0;right=0;pointerEvents=1;fontSize=16;" vertex="1" parent="LG96tNLQgG1vnL1AxYTh-4">
          <mxGeometry x="136" width="34" height="24" as="geometry">
            <mxRectangle width="34" height="24" as="alternateBounds" />
          </mxGeometry>
        </mxCell>
        <mxCell id="LG96tNLQgG1vnL1AxYTh-10" style="shape=tableRow;horizontal=0;startSize=0;swimlaneHead=0;swimlaneBody=0;strokeColor=inherit;top=0;left=0;bottom=0;right=0;collapsible=0;dropTarget=0;fillColor=none;points=[[0,0.5],[1,0.5]];portConstraint=eastwest;fontSize=16;" vertex="1" parent="LG96tNLQgG1vnL1AxYTh-3">
          <mxGeometry y="24" width="170" height="24" as="geometry" />
        </mxCell>
        <mxCell id="LG96tNLQgG1vnL1AxYTh-11" style="shape=partialRectangle;html=1;whiteSpace=wrap;connectable=0;strokeColor=inherit;overflow=hidden;fillColor=none;top=0;left=0;bottom=0;right=0;pointerEvents=1;fontSize=16;" vertex="1" parent="LG96tNLQgG1vnL1AxYTh-10">
          <mxGeometry width="34" height="24" as="geometry">
            <mxRectangle width="34" height="24" as="alternateBounds" />
          </mxGeometry>
        </mxCell>
        <mxCell id="LG96tNLQgG1vnL1AxYTh-12" style="shape=partialRectangle;html=1;whiteSpace=wrap;connectable=0;strokeColor=inherit;overflow=hidden;fillColor=none;top=0;left=0;bottom=0;right=0;pointerEvents=1;fontSize=16;" vertex="1" parent="LG96tNLQgG1vnL1AxYTh-10">
          <mxGeometry x="34" width="34" height="24" as="geometry">
            <mxRectangle width="34" height="24" as="alternateBounds" />
          </mxGeometry>
        </mxCell>
        <mxCell id="LG96tNLQgG1vnL1AxYTh-13" style="shape=partialRectangle;html=1;whiteSpace=wrap;connectable=0;strokeColor=#b85450;overflow=hidden;fillColor=#f8cecc;top=0;left=0;bottom=0;right=0;pointerEvents=1;fontSize=16;" vertex="1" parent="LG96tNLQgG1vnL1AxYTh-10">
          <mxGeometry x="68" width="34" height="24" as="geometry">
            <mxRectangle width="34" height="24" as="alternateBounds" />
          </mxGeometry>
        </mxCell>
        <mxCell id="LG96tNLQgG1vnL1AxYTh-14" style="shape=partialRectangle;html=1;whiteSpace=wrap;connectable=0;strokeColor=inherit;overflow=hidden;fillColor=none;top=0;left=0;bottom=0;right=0;pointerEvents=1;fontSize=16;" vertex="1" parent="LG96tNLQgG1vnL1AxYTh-10">
          <mxGeometry x="102" width="34" height="24" as="geometry">
            <mxRectangle width="34" height="24" as="alternateBounds" />
          </mxGeometry>
        </mxCell>
        <mxCell id="LG96tNLQgG1vnL1AxYTh-15" style="shape=partialRectangle;html=1;whiteSpace=wrap;connectable=0;strokeColor=inherit;overflow=hidden;fillColor=none;top=0;left=0;bottom=0;right=0;pointerEvents=1;fontSize=16;" vertex="1" parent="LG96tNLQgG1vnL1AxYTh-10">
          <mxGeometry x="136" width="34" height="24" as="geometry">
            <mxRectangle width="34" height="24" as="alternateBounds" />
          </mxGeometry>
        </mxCell>
        <mxCell id="LG96tNLQgG1vnL1AxYTh-16" style="shape=tableRow;horizontal=0;startSize=0;swimlaneHead=0;swimlaneBody=0;strokeColor=inherit;top=0;left=0;bottom=0;right=0;collapsible=0;dropTarget=0;fillColor=none;points=[[0,0.5],[1,0.5]];portConstraint=eastwest;fontSize=16;" vertex="1" parent="LG96tNLQgG1vnL1AxYTh-3">
          <mxGeometry y="48" width="170" height="24" as="geometry" />
        </mxCell>
        <mxCell id="LG96tNLQgG1vnL1AxYTh-17" style="shape=partialRectangle;html=1;whiteSpace=wrap;connectable=0;strokeColor=inherit;overflow=hidden;fillColor=none;top=0;left=0;bottom=0;right=0;pointerEvents=1;fontSize=16;" vertex="1" parent="LG96tNLQgG1vnL1AxYTh-16">
          <mxGeometry width="34" height="24" as="geometry">
            <mxRectangle width="34" height="24" as="alternateBounds" />
          </mxGeometry>
        </mxCell>
        <mxCell id="LG96tNLQgG1vnL1AxYTh-18" style="shape=partialRectangle;html=1;whiteSpace=wrap;connectable=0;strokeColor=inherit;overflow=hidden;fillColor=none;top=0;left=0;bottom=0;right=0;pointerEvents=1;fontSize=16;" vertex="1" parent="LG96tNLQgG1vnL1AxYTh-16">
          <mxGeometry x="34" width="34" height="24" as="geometry">
            <mxRectangle width="34" height="24" as="alternateBounds" />
          </mxGeometry>
        </mxCell>
        <mxCell id="LG96tNLQgG1vnL1AxYTh-19" style="shape=partialRectangle;html=1;whiteSpace=wrap;connectable=0;strokeColor=inherit;overflow=hidden;fillColor=none;top=0;left=0;bottom=0;right=0;pointerEvents=1;fontSize=16;" vertex="1" parent="LG96tNLQgG1vnL1AxYTh-16">
          <mxGeometry x="68" width="34" height="24" as="geometry">
            <mxRectangle width="34" height="24" as="alternateBounds" />
          </mxGeometry>
        </mxCell>
        <mxCell id="LG96tNLQgG1vnL1AxYTh-20" style="shape=partialRectangle;html=1;whiteSpace=wrap;connectable=0;strokeColor=inherit;overflow=hidden;fillColor=none;top=0;left=0;bottom=0;right=0;pointerEvents=1;fontSize=16;" vertex="1" parent="LG96tNLQgG1vnL1AxYTh-16">
          <mxGeometry x="102" width="34" height="24" as="geometry">
            <mxRectangle width="34" height="24" as="alternateBounds" />
          </mxGeometry>
        </mxCell>
        <mxCell id="LG96tNLQgG1vnL1AxYTh-21" style="shape=partialRectangle;html=1;whiteSpace=wrap;connectable=0;strokeColor=inherit;overflow=hidden;fillColor=none;top=0;left=0;bottom=0;right=0;pointerEvents=1;fontSize=16;" vertex="1" parent="LG96tNLQgG1vnL1AxYTh-16">
          <mxGeometry x="136" width="34" height="24" as="geometry">
            <mxRectangle width="34" height="24" as="alternateBounds" />
          </mxGeometry>
        </mxCell>
        <mxCell id="LG96tNLQgG1vnL1AxYTh-22" value="" style="shape=tableRow;horizontal=0;startSize=0;swimlaneHead=0;swimlaneBody=0;strokeColor=inherit;top=0;left=0;bottom=0;right=0;collapsible=0;dropTarget=0;fillColor=none;points=[[0,0.5],[1,0.5]];portConstraint=eastwest;fontSize=16;" vertex="1" parent="LG96tNLQgG1vnL1AxYTh-3">
          <mxGeometry y="72" width="170" height="24" as="geometry" />
        </mxCell>
        <mxCell id="LG96tNLQgG1vnL1AxYTh-23" value="" style="shape=partialRectangle;html=1;whiteSpace=wrap;connectable=0;strokeColor=inherit;overflow=hidden;fillColor=none;top=0;left=0;bottom=0;right=0;pointerEvents=1;fontSize=16;" vertex="1" parent="LG96tNLQgG1vnL1AxYTh-22">
          <mxGeometry width="34" height="24" as="geometry">
            <mxRectangle width="34" height="24" as="alternateBounds" />
          </mxGeometry>
        </mxCell>
        <mxCell id="LG96tNLQgG1vnL1AxYTh-24" value="" style="shape=partialRectangle;html=1;whiteSpace=wrap;connectable=0;strokeColor=inherit;overflow=hidden;fillColor=none;top=0;left=0;bottom=0;right=0;pointerEvents=1;fontSize=16;" vertex="1" parent="LG96tNLQgG1vnL1AxYTh-22">
          <mxGeometry x="34" width="34" height="24" as="geometry">
            <mxRectangle width="34" height="24" as="alternateBounds" />
          </mxGeometry>
        </mxCell>
        <mxCell id="LG96tNLQgG1vnL1AxYTh-25" value="" style="shape=partialRectangle;html=1;whiteSpace=wrap;connectable=0;strokeColor=inherit;overflow=hidden;fillColor=none;top=0;left=0;bottom=0;right=0;pointerEvents=1;fontSize=16;" vertex="1" parent="LG96tNLQgG1vnL1AxYTh-22">
          <mxGeometry x="68" width="34" height="24" as="geometry">
            <mxRectangle width="34" height="24" as="alternateBounds" />
          </mxGeometry>
        </mxCell>
        <mxCell id="LG96tNLQgG1vnL1AxYTh-26" style="shape=partialRectangle;html=1;whiteSpace=wrap;connectable=0;strokeColor=inherit;overflow=hidden;fillColor=none;top=0;left=0;bottom=0;right=0;pointerEvents=1;fontSize=16;" vertex="1" parent="LG96tNLQgG1vnL1AxYTh-22">
          <mxGeometry x="102" width="34" height="24" as="geometry">
            <mxRectangle width="34" height="24" as="alternateBounds" />
          </mxGeometry>
        </mxCell>
        <mxCell id="LG96tNLQgG1vnL1AxYTh-27" style="shape=partialRectangle;html=1;whiteSpace=wrap;connectable=0;strokeColor=inherit;overflow=hidden;fillColor=none;top=0;left=0;bottom=0;right=0;pointerEvents=1;fontSize=16;" vertex="1" parent="LG96tNLQgG1vnL1AxYTh-22">
          <mxGeometry x="136" width="34" height="24" as="geometry">
            <mxRectangle width="34" height="24" as="alternateBounds" />
          </mxGeometry>
        </mxCell>
        <mxCell id="LG96tNLQgG1vnL1AxYTh-28" value="" style="shape=tableRow;horizontal=0;startSize=0;swimlaneHead=0;swimlaneBody=0;strokeColor=inherit;top=0;left=0;bottom=0;right=0;collapsible=0;dropTarget=0;fillColor=none;points=[[0,0.5],[1,0.5]];portConstraint=eastwest;fontSize=16;" vertex="1" parent="LG96tNLQgG1vnL1AxYTh-3">
          <mxGeometry y="96" width="170" height="24" as="geometry" />
        </mxCell>
        <mxCell id="LG96tNLQgG1vnL1AxYTh-29" value="" style="shape=partialRectangle;html=1;whiteSpace=wrap;connectable=0;strokeColor=inherit;overflow=hidden;fillColor=none;top=0;left=0;bottom=0;right=0;pointerEvents=1;fontSize=16;" vertex="1" parent="LG96tNLQgG1vnL1AxYTh-28">
          <mxGeometry width="34" height="24" as="geometry">
            <mxRectangle width="34" height="24" as="alternateBounds" />
          </mxGeometry>
        </mxCell>
        <mxCell id="LG96tNLQgG1vnL1AxYTh-30" value="" style="shape=partialRectangle;html=1;whiteSpace=wrap;connectable=0;strokeColor=inherit;overflow=hidden;fillColor=none;top=0;left=0;bottom=0;right=0;pointerEvents=1;fontSize=16;" vertex="1" parent="LG96tNLQgG1vnL1AxYTh-28">
          <mxGeometry x="34" width="34" height="24" as="geometry">
            <mxRectangle width="34" height="24" as="alternateBounds" />
          </mxGeometry>
        </mxCell>
        <mxCell id="LG96tNLQgG1vnL1AxYTh-31" value="" style="shape=partialRectangle;html=1;whiteSpace=wrap;connectable=0;strokeColor=inherit;overflow=hidden;fillColor=none;top=0;left=0;bottom=0;right=0;pointerEvents=1;fontSize=16;" vertex="1" parent="LG96tNLQgG1vnL1AxYTh-28">
          <mxGeometry x="68" width="34" height="24" as="geometry">
            <mxRectangle width="34" height="24" as="alternateBounds" />
          </mxGeometry>
        </mxCell>
        <mxCell id="LG96tNLQgG1vnL1AxYTh-32" style="shape=partialRectangle;html=1;whiteSpace=wrap;connectable=0;strokeColor=inherit;overflow=hidden;fillColor=none;top=0;left=0;bottom=0;right=0;pointerEvents=1;fontSize=16;" vertex="1" parent="LG96tNLQgG1vnL1AxYTh-28">
          <mxGeometry x="102" width="34" height="24" as="geometry">
            <mxRectangle width="34" height="24" as="alternateBounds" />
          </mxGeometry>
        </mxCell>
        <mxCell id="LG96tNLQgG1vnL1AxYTh-33" style="shape=partialRectangle;html=1;whiteSpace=wrap;connectable=0;strokeColor=inherit;overflow=hidden;fillColor=none;top=0;left=0;bottom=0;right=0;pointerEvents=1;fontSize=16;" vertex="1" parent="LG96tNLQgG1vnL1AxYTh-28">
          <mxGeometry x="136" width="34" height="24" as="geometry">
            <mxRectangle width="34" height="24" as="alternateBounds" />
          </mxGeometry>
        </mxCell>
        <mxCell id="LG96tNLQgG1vnL1AxYTh-34" value="Voxel Visibility Volume" style="text;html=1;align=center;verticalAlign=middle;whiteSpace=wrap;rounded=0;fontStyle=1;fontSize=20;" vertex="1" parent="1">
          <mxGeometry x="130" y="270" width="220" height="30" as="geometry" />
        </mxCell>
        <mxCell id="LG96tNLQgG1vnL1AxYTh-35" value="" style="shape=cube;whiteSpace=wrap;html=1;boundedLbl=1;backgroundOutline=1;darkOpacity=0.05;darkOpacity2=0.1;size=10;container=0;fillColor=#e1d5e7;strokeColor=#9673a6;" vertex="1" parent="1">
          <mxGeometry x="230" y="575" width="60" height="50" as="geometry" />
        </mxCell>
        <mxCell id="LG96tNLQgG1vnL1AxYTh-36" value="" style="endArrow=classic;html=1;rounded=0;entryX=0;entryY=0;entryDx=25;entryDy=0;entryPerimeter=0;" edge="1" parent="1" source="LG96tNLQgG1vnL1AxYTh-10" target="LG96tNLQgG1vnL1AxYTh-35">
          <mxGeometry width="50" height="50" relative="1" as="geometry">
            <mxPoint x="300" y="600" as="sourcePoint" />
            <mxPoint x="350" y="550" as="targetPoint" />
          </mxGeometry>
        </mxCell>
        <mxCell id="LG96tNLQgG1vnL1AxYTh-37" value="" style="shape=table;startSize=0;container=1;collapsible=0;childLayout=tableLayout;fontSize=16;" vertex="1" parent="1">
          <mxGeometry x="510" y="340" width="150" height="280" as="geometry" />
        </mxCell>
        <mxCell id="LG96tNLQgG1vnL1AxYTh-38" style="shape=tableRow;horizontal=0;startSize=0;swimlaneHead=0;swimlaneBody=0;strokeColor=inherit;top=0;left=0;bottom=0;right=0;collapsible=0;dropTarget=0;fillColor=none;points=[[0,0.5],[1,0.5]];portConstraint=eastwest;fontSize=16;" vertex="1" parent="LG96tNLQgG1vnL1AxYTh-37">
          <mxGeometry width="150" height="40" as="geometry" />
        </mxCell>
        <mxCell id="LG96tNLQgG1vnL1AxYTh-39" value="Voxel Visibility" style="shape=partialRectangle;html=1;whiteSpace=wrap;connectable=0;strokeColor=#d79b00;overflow=hidden;fillColor=#ffe6cc;top=0;left=0;bottom=0;right=0;pointerEvents=1;fontSize=16;" vertex="1" parent="LG96tNLQgG1vnL1AxYTh-38">
          <mxGeometry width="150" height="40" as="geometry">
            <mxRectangle width="150" height="40" as="alternateBounds" />
          </mxGeometry>
        </mxCell>
        <mxCell id="LG96tNLQgG1vnL1AxYTh-40" value="" style="shape=tableRow;horizontal=0;startSize=0;swimlaneHead=0;swimlaneBody=0;strokeColor=inherit;top=0;left=0;bottom=0;right=0;collapsible=0;dropTarget=0;fillColor=none;points=[[0,0.5],[1,0.5]];portConstraint=eastwest;fontSize=16;" vertex="1" parent="LG96tNLQgG1vnL1AxYTh-37">
          <mxGeometry y="40" width="150" height="40" as="geometry" />
        </mxCell>
        <mxCell id="LG96tNLQgG1vnL1AxYTh-41" value="X: Hit mesh index" style="shape=partialRectangle;html=1;whiteSpace=wrap;connectable=0;strokeColor=#b85450;overflow=hidden;fillColor=#f8cecc;top=0;left=0;bottom=0;right=0;pointerEvents=1;fontSize=16;" vertex="1" parent="LG96tNLQgG1vnL1AxYTh-40">
          <mxGeometry width="150" height="40" as="geometry">
            <mxRectangle width="150" height="40" as="alternateBounds" />
          </mxGeometry>
        </mxCell>
        <mxCell id="LG96tNLQgG1vnL1AxYTh-42" value="" style="shape=tableRow;horizontal=0;startSize=0;swimlaneHead=0;swimlaneBody=0;strokeColor=inherit;top=0;left=0;bottom=0;right=0;collapsible=0;dropTarget=0;fillColor=none;points=[[0,0.5],[1,0.5]];portConstraint=eastwest;fontSize=16;" vertex="1" parent="LG96tNLQgG1vnL1AxYTh-37">
          <mxGeometry y="80" width="150" height="40" as="geometry" />
        </mxCell>
        <mxCell id="LG96tNLQgG1vnL1AxYTh-43" value="X: Hit distance" style="shape=partialRectangle;html=1;whiteSpace=wrap;connectable=0;strokeColor=#d6b656;overflow=hidden;fillColor=#fff2cc;top=0;left=0;bottom=0;right=0;pointerEvents=1;fontSize=16;" vertex="1" parent="LG96tNLQgG1vnL1AxYTh-42">
          <mxGeometry width="150" height="40" as="geometry">
            <mxRectangle width="150" height="40" as="alternateBounds" />
          </mxGeometry>
        </mxCell>
        <mxCell id="LG96tNLQgG1vnL1AxYTh-44" value="" style="shape=tableRow;horizontal=0;startSize=0;swimlaneHead=0;swimlaneBody=0;strokeColor=inherit;top=0;left=0;bottom=0;right=0;collapsible=0;dropTarget=0;fillColor=none;points=[[0,0.5],[1,0.5]];portConstraint=eastwest;fontSize=16;" vertex="1" parent="LG96tNLQgG1vnL1AxYTh-37">
          <mxGeometry y="120" width="150" height="40" as="geometry" />
        </mxCell>
        <mxCell id="LG96tNLQgG1vnL1AxYTh-45" value="Y: Hit mesh index" style="shape=partialRectangle;html=1;whiteSpace=wrap;connectable=0;strokeColor=#b85450;overflow=hidden;fillColor=#f8cecc;top=0;left=0;bottom=0;right=0;pointerEvents=1;fontSize=16;" vertex="1" parent="LG96tNLQgG1vnL1AxYTh-44">
          <mxGeometry width="150" height="40" as="geometry">
            <mxRectangle width="150" height="40" as="alternateBounds" />
          </mxGeometry>
        </mxCell>
        <mxCell id="LG96tNLQgG1vnL1AxYTh-46" style="shape=tableRow;horizontal=0;startSize=0;swimlaneHead=0;swimlaneBody=0;strokeColor=inherit;top=0;left=0;bottom=0;right=0;collapsible=0;dropTarget=0;fillColor=none;points=[[0,0.5],[1,0.5]];portConstraint=eastwest;fontSize=16;" vertex="1" parent="LG96tNLQgG1vnL1AxYTh-37">
          <mxGeometry y="160" width="150" height="40" as="geometry" />
        </mxCell>
        <mxCell id="LG96tNLQgG1vnL1AxYTh-47" value="Y: Hit distance" style="shape=partialRectangle;html=1;whiteSpace=wrap;connectable=0;strokeColor=#d6b656;overflow=hidden;fillColor=#fff2cc;top=0;left=0;bottom=0;right=0;pointerEvents=1;fontSize=16;" vertex="1" parent="LG96tNLQgG1vnL1AxYTh-46">
          <mxGeometry width="150" height="40" as="geometry">
            <mxRectangle width="150" height="40" as="alternateBounds" />
          </mxGeometry>
        </mxCell>
        <mxCell id="LG96tNLQgG1vnL1AxYTh-48" style="shape=tableRow;horizontal=0;startSize=0;swimlaneHead=0;swimlaneBody=0;strokeColor=inherit;top=0;left=0;bottom=0;right=0;collapsible=0;dropTarget=0;fillColor=none;points=[[0,0.5],[1,0.5]];portConstraint=eastwest;fontSize=16;" vertex="1" parent="LG96tNLQgG1vnL1AxYTh-37">
          <mxGeometry y="200" width="150" height="40" as="geometry" />
        </mxCell>
        <mxCell id="LG96tNLQgG1vnL1AxYTh-49" value="Z: Hit mesh index" style="shape=partialRectangle;html=1;whiteSpace=wrap;connectable=0;strokeColor=#b85450;overflow=hidden;fillColor=#f8cecc;top=0;left=0;bottom=0;right=0;pointerEvents=1;fontSize=16;" vertex="1" parent="LG96tNLQgG1vnL1AxYTh-48">
          <mxGeometry width="150" height="40" as="geometry">
            <mxRectangle width="150" height="40" as="alternateBounds" />
          </mxGeometry>
        </mxCell>
        <mxCell id="LG96tNLQgG1vnL1AxYTh-50" style="shape=tableRow;horizontal=0;startSize=0;swimlaneHead=0;swimlaneBody=0;strokeColor=inherit;top=0;left=0;bottom=0;right=0;collapsible=0;dropTarget=0;fillColor=none;points=[[0,0.5],[1,0.5]];portConstraint=eastwest;fontSize=16;" vertex="1" parent="LG96tNLQgG1vnL1AxYTh-37">
          <mxGeometry y="240" width="150" height="40" as="geometry" />
        </mxCell>
        <mxCell id="LG96tNLQgG1vnL1AxYTh-51" value="Z: Hit distance" style="shape=partialRectangle;html=1;whiteSpace=wrap;connectable=0;strokeColor=#d6b656;overflow=hidden;fillColor=#fff2cc;top=0;left=0;bottom=0;right=0;pointerEvents=1;fontSize=16;" vertex="1" parent="LG96tNLQgG1vnL1AxYTh-50">
          <mxGeometry width="150" height="40" as="geometry">
            <mxRectangle width="150" height="40" as="alternateBounds" />
          </mxGeometry>
        </mxCell>
        <mxCell id="LG96tNLQgG1vnL1AxYTh-52" value="" style="shape=flexArrow;endArrow=classic;html=1;rounded=0;fillColor=#f8cecc;strokeColor=#b85450;" edge="1" parent="1">
          <mxGeometry width="50" height="50" relative="1" as="geometry">
            <mxPoint x="350" y="575" as="sourcePoint" />
            <mxPoint x="480" y="501" as="targetPoint" />
          </mxGeometry>
        </mxCell>
      </root>
    </mxGraphModel>
  </diagram>
</mxfile>
